<svg width="33" height="33" viewBox="0 0 33 33" fill="none" xmlns="http://www.w3.org/2000/svg">
<path d="M31.1784 3.73281e-08H1.82C0.814728 0.000604288 -0.000201379 0.815936 3.73281e-08 1.82161V31.18C0.000604288 32.1853 0.815936 33.0002 1.82161 33H17.6279V20.2383H13.3418V15.2432H17.6279V11.5671C17.6279 7.30415 20.2304 4.98384 24.0332 4.98384C25.8546 4.98384 27.4198 5.11959 27.876 5.18022V9.63574H25.2537C23.1848 9.63574 22.7842 10.6189 22.7842 12.0618V15.2432H27.731L27.0864 20.2383H22.7842V33H31.1784C32.1843 33.0002 32.9998 32.1851 33 31.1792C33 31.179 33 31.1788 33 31.1784V1.82C32.9996 0.814728 32.1841 -0.000201379 31.1784 3.73281e-08Z" fill="white"/>
</svg>
