<svg width="37" height="36" viewBox="0 0 37 36" fill="none" xmlns="http://www.w3.org/2000/svg">
<g clip-path="url(#clip0)">
<path d="M37 6.83775C35.6241 7.425 34.1579 7.81425 32.6294 8.00325C34.2019 7.08975 35.4021 5.65425 35.9663 3.924C34.5002 4.7745 32.8814 5.37525 31.1563 5.7105C29.7642 4.26825 27.7801 3.375 25.6156 3.375C21.4161 3.375 18.0352 6.6915 18.0352 10.7572C18.0352 11.3422 18.0861 11.9047 18.2109 12.4402C11.9047 12.141 6.32469 9.20025 2.57612 4.7205C1.92169 5.82525 1.53781 7.08975 1.53781 8.451C1.53781 11.007 2.89062 13.2727 4.90712 14.5845C3.68844 14.562 2.49287 14.2177 1.48 13.6755C1.48 13.698 1.48 13.7272 1.48 13.7565C1.48 17.343 4.10931 20.322 7.55725 21.0082C6.93981 21.1725 6.26687 21.2512 5.5685 21.2512C5.08287 21.2512 4.59262 21.2242 4.13244 21.1252C5.11525 24.048 7.90413 26.1967 11.2203 26.2665C8.6395 28.2307 5.36269 29.4142 1.81531 29.4142C1.19325 29.4142 0.596625 29.3872 0 29.313C3.36006 31.4212 7.34219 32.625 11.6365 32.625C25.5947 32.625 33.226 21.375 33.226 11.6235C33.226 11.2972 33.2144 10.9822 33.1982 10.6695C34.7037 9.63 35.9686 8.33175 37 6.83775Z" fill="white"/>
</g>
<defs>
<clipPath id="clip0">
<rect width="37" height="36" fill="white"/>
</clipPath>
</defs>
</svg>
